<svg width="220" height="220" viewBox="0 0 220 220" fill="none" xmlns="http://www.w3.org/2000/svg">
<path d="M72.5 60C30.8333 93.3333 26.6667 139.167 60 197.5M147.5 160C189.167 126.667 193.333 81.7305 160 23.3972M110 10C83.4784 10 58.043 20.5357 39.2893 39.2893C20.5357 58.043 10 83.4784 10 110C10 136.522 20.5357 161.957 39.2893 180.711C58.043 199.464 83.4784 210 110 210C136.522 210 161.957 199.464 180.711 180.711C199.464 161.957 210 136.522 210 110C210 83.4784 199.464 58.043 180.711 39.2893C161.957 20.5357 136.522 10 110 10ZM110 47.5C93.424 47.5 77.5269 54.0848 65.8058 65.8058C54.0848 77.5269 47.5 93.424 47.5 110C47.5 126.576 54.0848 142.473 65.8058 154.194C77.5269 165.915 93.424 172.5 110 172.5C126.576 172.5 142.473 165.915 154.194 154.194C165.915 142.473 172.5 126.576 172.5 110C172.5 93.424 165.915 77.5269 154.194 65.8058C142.473 54.0848 126.576 47.5 110 47.5Z" stroke="#FAA404" stroke-width="20" stroke-linejoin="round"/>
</svg>
